<svg xmlns="http://www.w3.org/2000/svg" viewBox="0 0 27.14 23.63"><defs><style>.cls-1{fill:#fff;fill-rule:evenodd;}</style></defs><title>アセット 1</title><g id="レイヤー_2" data-name="レイヤー 2"><g id="レイヤー_4" data-name="レイヤー 4"><path class="cls-1" d="M20.23,5.13A7.56,7.56,0,0,0,12.66,0C7.77,0,4.35,3.63,4.06,8.37A6.13,6.13,0,0,0,0,14.25,6,6,0,0,0,5.72,20.4h.76a.85.85,0,1,0,0-1.7H5.72a4.33,4.33,0,0,1-4-4.45A4.42,4.42,0,0,1,5,9.87l.77-.13L5.74,9h0c0-4.14,2.72-7.25,6.92-7.25A5.83,5.83,0,0,1,18.8,6.19l.19.58.61,0a6,6,0,0,1,5.91,5.8c0,2.89-1.91,6.11-4.82,6.11h-.24a.85.85,0,0,0,0,1.7h0c4.25-.11,6.69-4.17,6.69-7.81A7.6,7.6,0,0,0,20.23,5.13ZM17.14,18.8a.59.59,0,0,0-.86,0l-1.86,2.06V12.32a.85.85,0,0,0-1.7,0v8.55l-1.81-2a.59.59,0,0,0-.86-.05l-.21.12a.64.64,0,0,0,0,.89L12.9,23.2v0l.22.22a.61.61,0,0,0,.43.19.63.63,0,0,0,.43-.19l.21-.22v0l3.14-3.44a.52.52,0,0,0,0-.79Z"/></g></g></svg>