<svg xmlns="http://www.w3.org/2000/svg" viewBox="0 0 15.51 15.51"><defs><style>.cls-1{fill:none;stroke:#000;stroke-linecap:round;stroke-linejoin:round;}</style></defs><title>アセット 1</title><g id="レイヤー_2" data-name="レイヤー 2"><g id="レイヤー_4" data-name="レイヤー 4"><path class="cls-1" d="M15,1.09A.59.59,0,0,0,14.42.5H3.71a.59.59,0,0,0-.59.59V11.8a.59.59,0,0,0,.59.6H14.42a.59.59,0,0,0,.59-.6Z"/><line class="cls-1" x1="12.29" y1="8.96" x2="5.83" y2="8.96"/><line class="cls-1" x1="12.29" y1="6.07" x2="5.83" y2="6.07"/><line class="cls-1" x1="12.29" y1="3.18" x2="5.83" y2="3.18"/><path class="cls-1" d="M2.28,3.71H1.09a.6.6,0,0,0-.59.6V14.42a.59.59,0,0,0,.59.59H11.21a.58.58,0,0,0,.59-.59V13.23"/></g></g></svg>
