<svg xmlns="http://www.w3.org/2000/svg" viewBox="0 0 15.4 11.64"><defs><style>.cls-1{fill:none;stroke:#fff;stroke-linecap:round;stroke-linejoin:round;}</style></defs><title>アセット 1</title><g id="レイヤー_2" data-name="レイヤー 2"><g id="レイヤー_4" data-name="レイヤー 4"><path class="cls-1" d="M14.51,1.44A.64.64,0,0,0,14,.92,46.94,46.94,0,0,0,1.43.92a.64.64,0,0,0-.54.52,24.79,24.79,0,0,0,0,8.76.64.64,0,0,0,.54.52,46.94,46.94,0,0,0,12.53,0,.64.64,0,0,0,.55-.52A24.79,24.79,0,0,0,14.51,1.44Z"/><path class="cls-1" d="M6,3.41a.34.34,0,0,0-.5.29V7.94a.34.34,0,0,0,.5.29L9.72,6.11a.33.33,0,0,0,0-.58Z"/></g></g></svg>
