<svg xmlns="http://www.w3.org/2000/svg" viewBox="0 0 13.44 13.39"><defs><style>.cls-1{fill:#000;}</style></defs><title>アセット 1</title><g id="レイヤー_2" data-name="レイヤー 2"><g id="レイヤー_4" data-name="レイヤー 4"><path class="cls-1" d="M13.32,6.71,7,.13A.43.43,0,0,0,6.74,0a.44.44,0,0,0-.31.13L.12,6.71a.41.41,0,0,0,0,.59.41.41,0,0,0,.59,0l.56-.58V13a.42.42,0,0,0,.42.42H4.63A.42.42,0,0,0,5.05,13V8.79H8.4V13a.41.41,0,0,0,.41.42h2.93a.42.42,0,0,0,.42-.42V6.7l.56.59a.39.39,0,0,0,.3.13.4.4,0,0,0,.29-.12A.41.41,0,0,0,13.32,6.71Zm-2-.76v6.6H9.23V8.37A.42.42,0,0,0,8.81,8H4.64a.42.42,0,0,0-.42.42v4.18H2.12V6a.3.3,0,0,0,0-.1L6.74,1l4.6,4.83A.3.3,0,0,0,11.32,6Z"/></g></g></svg>
