<svg xmlns="http://www.w3.org/2000/svg" viewBox="0 0 15.4 15.4"><defs><style>.cls-1{fill:none;stroke:#000;stroke-linecap:round;stroke-linejoin:round;}</style></defs><title>アセット 1</title><g id="レイヤー_2" data-name="レイヤー 2"><g id="レイヤー_4" data-name="レイヤー 4"><g id="Social-Medias-Rewards-Rating_Mood_mood-happy" data-name="Social-Medias-Rewards-Rating / Mood / mood-happy"><g id="Group_8" data-name="Group 8"><g id="mood-happy"><path id="Shape_50" data-name="Shape 50" class="cls-1" d="M8.18.5A6.71,6.71,0,0,0,2.47,10.75L.5,14.9l4.14-2A6.71,6.71,0,1,0,8.18.5Z"/><path id="Shape_51" data-name="Shape 51" class="cls-1" d="M5.66,6.13a.16.16,0,0,1,0,.32.16.16,0,0,1,0-.32"/><path id="Shape_52" data-name="Shape 52" class="cls-1" d="M10.67,6.13a.16.16,0,1,1-.16.16.16.16,0,0,1,.16-.16"/><path id="Shape_53" data-name="Shape 53" class="cls-1" d="M9.73,8.32a1.57,1.57,0,1,1-3.13,0Z"/></g></g></g></g></g></svg>
