<svg xmlns="http://www.w3.org/2000/svg" viewBox="0 0 138.44 18.17"><defs><style>.cls-1{fill:#f56c2d;}.cls-2{fill:#f5a42d;}.cls-3{fill:none;stroke:#f56c2d;stroke-miterlimit:10;}</style></defs><title>SideMenu__logo</title><g id="レイヤー_2" data-name="レイヤー 2"><g id="レイヤー_3" data-name="レイヤー 3"><path class="cls-1" d="M15.31,10V3.76l6,4.81V10h1.91V.06s0,0,0-.06H21.32s0,0,0,.06V6.13l-6-4.82V.06s0,0,0-.06H13.4V10h1.91Z"/><path class="cls-1" d="M26.7,8.62,28.05,10h6.7L36.1,8.62V1.24L34.86,0H27.94L26.7,1.24ZM28.61,2l.23-.23H34l.23.23v5.8L34,8.06H28.84l-.23-.23Z"/><path class="cls-1" d="M.45,4v6H8.5L9.85,8.62V5.33l-.39-.4.39-.39V1.24L8.61,0H.45ZM2.36,1.8H7.71L7.94,2V3.75L7.71,4H2.36ZM7.71,5.89l.23.23V7.83l-.23.23H2.36V5.89Z"/><polygon class="cls-2" points="81.11 3.19 87.66 8.44 87.66 10.03 89.02 10.03 89.02 0.06 87.66 0.06 87.66 6.69 81.14 1.47 81.11 1.51 81.11 0.06 79.75 0.06 79.75 10.03 81.11 10.03 81.11 3.19"/><polygon class="cls-2" points="92.53 8.78 93.71 9.97 100.19 9.97 101.18 8.98 100.22 8.02 99.63 8.61 94.28 8.61 93.89 8.22 93.89 1.67 94.28 1.28 99.63 1.28 100.22 1.87 101.18 0.91 100.27 0 93.64 0 92.53 1.11 92.53 8.78"/><polygon class="cls-2" points="68.5 10.03 75.14 10.03 76.24 8.92 76.24 0 74.88 0 74.88 8.36 74.49 8.74 69.14 8.74 68.75 8.36 68.75 0 67.39 0 67.39 8.92 68.5 10.03"/><polygon class="cls-2" points="50.93 8.47 44.12 8.47 44.12 0.06 42.76 0.06 42.76 9.83 50.93 9.83 50.93 8.47"/><polygon class="cls-2" points="54.43 10.03 55.8 10.03 55.8 8.68 59.16 1.49 62.52 8.68 62.52 10.03 63.89 10.03 63.89 8.38 59.97 0 58.35 0 54.43 8.38 54.43 10.03"/><polygon class="cls-2" points="106.05 5.62 112.6 5.62 112.6 10.03 113.96 10.03 113.96 0.06 112.6 0.06 112.6 4.26 106.05 4.26 106.05 0.06 104.68 0.06 104.68 10.03 106.05 10.03 106.05 5.62"/><polygon class="cls-2" points="117.46 0.06 117.46 10.03 118.83 10.03 118.83 9.97 125.82 9.97 125.82 8.61 118.83 8.61 118.83 5.62 125.82 5.62 125.82 4.26 118.83 4.26 118.83 1.36 125.82 1.36 125.82 0 118.33 0 118.33 0.06 117.46 0.06"/><polygon class="cls-2" points="129.33 10.03 130.69 10.03 130.69 1.33 136.43 1.33 136.82 1.72 136.82 4.63 136.43 5.01 132.45 5.01 132.45 5.93 136.52 10.03 138.44 10.03 134.81 6.38 136.99 6.38 138.18 5.19 138.18 1.16 137.03 0 129.33 0 129.33 10.03"/><line class="cls-3" y1="17.67" x2="35.91" y2="17.67"/></g></g></svg>