<svg xmlns="http://www.w3.org/2000/svg" viewBox="0 0 453.76 54.35"><defs><style>.cls-1{fill:#f56c2d;}.cls-2{fill:#f5a42d;}</style></defs><title>アセット 1</title><g id="レイヤー_2" data-name="レイヤー 2"><g id="LOGO"><path class="cls-1" d="M48.84,33V12.35L68.59,28.18V33h6.27V.2c0-.07,0-.13,0-.2H68.61a1.36,1.36,0,0,0,0,.2V20.14L48.84,4.31V.2c0-.07,0-.13,0-.2H42.59a1.36,1.36,0,0,0,0,.2V33h6.27Z"/><path class="cls-1" d="M86.31,28.36l4.44,4.43h22l4.43-4.43V4.08L113.14,0H90.39L86.31,4.08ZM92.59,6.67l.75-.75h16.84l.76.75V25.76l-.76.76H93.34l-.75-.76Z"/><path class="cls-1" d="M0,13.08V32.79H26.47l4.43-4.43V17.51l-1.3-1.29,1.3-1.3V4.08L26.82,0H0ZM6.27,5.92h17.6l.76.75v5.65l-.76.76H6.27Zm17.6,13.43.76.76v5.65l-.76.76H6.27V19.35Z"/><polygon class="cls-2" points="265.22 10.49 286.76 27.75 286.76 32.97 291.24 32.97 291.24 0.2 286.76 0.2 286.76 22.01 265.33 4.83 265.22 4.96 265.22 0.2 260.74 0.2 260.74 32.97 265.22 32.97 265.22 10.49"/><polygon class="cls-2" points="302.77 28.88 306.67 32.79 327.97 32.79 331.22 29.54 328.05 26.37 326.11 28.31 308.53 28.31 307.25 27.03 307.25 5.51 308.53 4.22 326.11 4.22 328.05 6.16 331.22 2.99 328.22 0 306.42 0 302.77 3.65 302.77 28.88"/><polygon class="cls-2" points="223.75 32.97 245.58 32.97 249.22 29.33 249.22 0 244.74 0 244.74 27.47 243.46 28.76 225.87 28.76 224.59 27.47 224.59 0 220.11 0 220.11 29.33 223.75 32.97"/><polygon class="cls-2" points="165.98 27.85 143.59 27.85 143.59 0.2 139.11 0.2 139.11 32.33 165.98 32.33 165.98 27.85"/><polygon class="cls-2" points="177.5 32.97 181.98 32.97 181.98 28.55 193.04 4.91 204.11 28.55 204.11 32.97 208.59 32.97 208.59 27.55 195.69 0 190.4 0 177.5 27.55 177.5 32.97"/><polygon class="cls-2" points="347.22 18.47 368.76 18.47 368.76 32.97 373.24 32.97 373.24 0.2 368.76 0.2 368.76 13.99 347.22 13.99 347.22 0.2 342.74 0.2 342.74 32.97 347.22 32.97 347.22 18.47"/><polygon class="cls-2" points="384.76 0.2 384.76 32.97 389.24 32.97 389.24 32.77 412.26 32.77 412.26 28.3 389.24 28.3 389.24 18.47 412.26 18.47 412.26 13.99 389.24 13.99 389.24 4.47 412.26 4.47 412.26 0 387.63 0 387.63 0.2 384.76 0.2"/><polygon class="cls-2" points="423.79 32.97 428.26 32.97 428.26 4.37 447.13 4.37 448.41 5.66 448.41 15.21 447.13 16.49 434.06 16.49 434.06 19.51 447.44 32.97 453.76 32.97 441.83 20.97 448.99 20.97 452.89 17.06 452.89 3.8 449.09 0 423.79 0 423.79 32.97"/><rect class="cls-1" y="49.85" width="117.21" height="4.5"/></g></g></svg>